<svg xmlns="http://www.w3.org/2000/svg" width="948" height="380" viewBox="0 0 948 380"><g transform="translate(604.339 0)"><g transform="translate(0 121.496)"><ellipse cx="111.082" cy="111.95" rx="111.082" ry="111.95" transform="translate(0 0)" fill="#f29389"/></g><ellipse cx="45.995" cy="47.731" rx="45.995" ry="47.731" transform="translate(251.671 230.843)" fill="#f29389"/><circle cx="45.127" cy="45.127" r="45.127" transform="translate(206.544 46.863)" fill="#f29389"/><ellipse cx="47.731" cy="45.995" rx="47.731" ry="45.995" transform="translate(17.357 0)" fill="#f29389"/><circle cx="82.444" cy="82.444" r="82.444" transform="translate(27.77 151.003)" fill="#f6f6f3"/><circle cx="26.035" cy="26.035" r="26.035" transform="translate(272.499 253.407)" fill="#f6f6f3"/><circle cx="23.431" cy="23.431" r="23.431" transform="translate(227.372 69.427)" fill="#f6f6f3"/><circle cx="26.035" cy="26.035" r="26.035" transform="translate(39.62 19.804)" fill="#f6f6f3"/></g><rect width="221" height="130" transform="translate(0 236)" fill="#579ee4"/><rect width="574" height="10" transform="translate(0 168)" fill="#579ee4"/><rect width="657" height="10" transform="translate(86 356)" fill="#579ee4"/><path d="M110.5,0,221,123H0Z" transform="translate(331 356) rotate(180)" fill="#fff"/><text transform="translate(0 160)" fill="#262425" font-size="148" font-family="SegoeUI-SemiboldItalic, Segoe UI" font-weight="600" font-style="italic"><tspan x="0" y="0">SAYBEN</tspan></text><text transform="translate(247 343)" fill="#262425" font-size="148" font-family="SegoeUI-SemiboldItalic, Segoe UI" font-weight="600" font-style="italic"><tspan x="0" y="0">CODES</tspan></text></svg>